# xmcd
#
# Track frame offsets: 
#        150
#        18310
#        32065
#        59070
#        75620
#        88315
#        111352
#        124327
#        142890
#        161120
#
# Disc length: 2338 seconds
#
# Revision: 1
# Processed by: cddbd v1.5.2PL0 Copyright (c) Steve Scherf et al.
# Submitted via: ExactAudioCopyFreeDBPlugin 1.0
#
DISCID=8a09200a
DTITLE=Various Artist - Blue Guitar Greats
DYEAR=2001
DGENRE=Blues
TTITLE0=Chuck Berry - Every Day I Have the Blues
TTITLE1=Elvin Bishop - Juke Joint Jump
TTITLE2=Roy Buchanon - Roy's Bluz
TTITLE3=Luther Allison - Now You Got It
TTITLE4=Albert Collins - Backstroke
TTITLE5=Robert Cray - I Shiver
TTITLE6=Buddy Guy - Let Me Love You Baby
TTITLE7=Freddy King - Pack It Up
TTITLE8=Little Milton - I Feel So Bad
TTITLE9=Otis Rush - So Many Roads, So Many Trains
EXTD=Blues Guitar Greats\n
EXTT0=
EXTT1=
EXTT2=
EXTT3=
EXTT4=
EXTT5=
EXTT6=
EXTT7=
EXTT8=
EXTT9=
PLAYORDER=
